<svg width="908" height="645" xmlns="http://www.w3.org/2000/svg" xmlns:xlink="http://www.w3.org/1999/xlink" xml:space="preserve" overflow="hidden"><g transform="translate(-1046 -586)"><path d="M1049 734.502C1049 681.205 1092.21 638 1145.5 638L1853.5 638C1906.79 638 1950 681.205 1950 734.502L1950 1120.5C1950 1173.79 1906.79 1217 1853.5 1217L1145.5 1217C1092.21 1217 1049 1173.79 1049 1120.5Z" fill="#FFC000" fill-rule="evenodd"/><path d="M1049 625.168C1049 603.536 1066.54 586 1088.17 586L1289.83 586C1311.46 586 1329 603.536 1329 625.168L1329 781.832C1329 803.464 1311.46 821 1289.83 821L1088.17 821C1066.54 821 1049 803.464 1049 781.832Z" fill="#FFC000" fill-rule="evenodd"/><path d="M1049.5 763.336C1049.5 712.064 1091.06 670.5 1142.34 670.5L1857.66 670.5C1908.94 670.5 1950.5 712.064 1950.5 763.336L1950.5 1134.66C1950.5 1185.94 1908.94 1227.5 1857.66 1227.5L1142.34 1227.5C1091.06 1227.5 1049.5 1185.94 1049.5 1134.66Z" stroke="#FFD243" stroke-width="6.875" stroke-linejoin="round" stroke-miterlimit="10" fill="#FFD243" fill-rule="evenodd"/></g></svg>